<?xml version="1.0" encoding="UTF-8" standalone="no"?>
<svg
   xmlns:dc="http://purl.org/dc/elements/1.1/"
   xmlns:cc="http://creativecommons.org/ns#"
   xmlns:rdf="http://www.w3.org/1999/02/22-rdf-syntax-ns#"
   xmlns:svg="http://www.w3.org/2000/svg"
   xmlns="http://www.w3.org/2000/svg"
   xmlns:sodipodi="http://sodipodi.sourceforge.net/DTD/sodipodi-0.dtd"
   xmlns:inkscape="http://www.inkscape.org/namespaces/inkscape"
   id="SVGRoot"
   version="1.1"
   viewBox="0 0 238.12502 79.375001"
   height="300"
   width="900"
   inkscape:export-filename="/sysroot/home/stream/Descargas/logoRGIngenierosFinal.png"
   inkscape:export-xdpi="96"
   inkscape:export-ydpi="96"
   inkscape:version="1.0 (4035a4fb49, 2020-05-01)"
   sodipodi:docname="logorgingenierosPropuestaFinal.svg">
  <defs
     id="defs2016">
    <linearGradient
       data-v-fde0c5aa=""
       gradientTransform="rotate(25)"
       id="40023d63-5269-400c-b464-6657ed1f22dd"
       x1="0"
       y1="0"
       x2="1"
       y2="0">
      <stop
         data-v-fde0c5aa=""
         offset="0%"
         stop-color="#288B58"
         stop-opacity="1"
         id="stop11" />
      <stop
         data-v-fde0c5aa=""
         offset="100%"
         stop-color="#1522F1"
         stop-opacity="1"
         id="stop13" />
    </linearGradient>
  </defs>
  <sodipodi:namedview
     inkscape:guide-bbox="true"
     showguides="true"
     id="base"
     pagecolor="#ffffff"
     bordercolor="#666666"
     borderopacity="1.0"
     inkscape:pageopacity="0.0"
     inkscape:pageshadow="2"
     inkscape:zoom="1"
     inkscape:cx="417.84688"
     inkscape:cy="160"
     inkscape:document-units="mm"
     inkscape:current-layer="layer1"
     inkscape:document-rotation="0"
     showgrid="false"
     inkscape:window-width="1366"
     inkscape:window-height="691"
     inkscape:window-x="0"
     inkscape:window-y="0"
     inkscape:window-maximized="1"
     units="mm">
    <sodipodi:guide
       id="guide71"
       orientation="1,0"
       position="86.174589,13.273456" />
    <sodipodi:guide
       id="guide73"
       orientation="1,0"
       position="223.71297,57.025406" />
  </sodipodi:namedview>
  <metadata
     id="metadata2019">
    <rdf:RDF>
      <cc:Work
         rdf:about="">
        <dc:format>image/svg+xml</dc:format>
        <dc:type
           rdf:resource="http://purl.org/dc/dcmitype/StillImage" />
        <dc:title />
      </cc:Work>
    </rdf:RDF>
  </metadata>
  <g
     inkscape:label="Layer 1"
     inkscape:groupmode="layer"
     id="layer1">
    <rect
       id="rect4"
       class="logo-background-square"
       height="79.032295"
       width="238.36092"
       y="0.41745391"
       x="-0.20702524"
       fill="#004a66"
       data-v-fde0c5aa=""
       style="stroke-width:0.457508" />
    <g
       transform="matrix(1.2294002,0,0,1.2909341,84.899391,31.399743)"
       fill="#ffffff"
       id="ab1be17c-5827-4c77-8422-d83a840b9c67"
       data-v-fde0c5aa="">
      <path
         id="path8"
         d="m 9.46,10.19 h -1.5 l -2.5,-4 H 2.45 v 4 H 1.15 V 0.56 h 4.53 v 0 q 0.82,0 1.45,0.19 v 0 0 Q 7.77,0.94 8.2,1.29 v 0 0 q 0.43,0.36 0.65,0.87 v 0 0 q 0.23,0.51 0.23,1.16 v 0 0 q 0,0.45 -0.14,0.9 v 0 0 Q 8.81,4.66 8.52,5.03 v 0 0 Q 8.24,5.4 7.79,5.67 v 0 0 Q 7.35,5.93 6.73,6.04 v 0 z M 7.77,3.33 v 0 0 q 0,-0.44 -0.15,-0.76 v 0 0 Q 7.46,2.25 7.18,2.03 v 0 0 Q 6.89,1.82 6.48,1.71 v 0 0 Q 6.07,1.61 5.55,1.61 v 0 h -3.1 v 3.55 h 3.16 v 0 q 0.56,0 0.97,-0.14 v 0 0 Q 6.99,4.88 7.25,4.63 v 0 0 Q 7.51,4.39 7.64,4.05 v 0 0 Q 7.77,3.72 7.77,3.33 Z m 3.04,2 v 0 0 q 0,-1.13 0.31,-2.04 v 0 0 q 0.3,-0.9 0.91,-1.54 v 0 0 q 0.6,-0.64 1.5,-0.99 v 0 0 q 0.89,-0.34 2.08,-0.34 v 0 0 q 0.89,0 1.56,0.15 v 0 0 q 0.66,0.16 1.16,0.46 v 0 0 q 0.49,0.29 0.83,0.71 v 0 0 q 0.34,0.42 0.58,0.95 v 0 L 18.5,3.06 v 0 Q 18.32,2.7 18.07,2.41 v 0 0 q -0.25,-0.29 -0.6,-0.5 v 0 0 Q 17.11,1.71 16.64,1.6 v 0 0 Q 16.17,1.48 15.57,1.48 v 0 0 q -0.87,0 -1.52,0.28 v 0 0 q -0.64,0.27 -1.07,0.78 v 0 0 q -0.42,0.5 -0.63,1.21 v 0 0 q -0.21,0.71 -0.21,1.58 v 0 0 q 0,0.87 0.23,1.59 v 0 0 q 0.22,0.72 0.67,1.25 v 0 0 q 0.44,0.52 1.1,0.81 v 0 0 q 0.66,0.29 1.53,0.29 v 0 0 q 0.57,0 1.04,-0.1 v 0 0 q 0.48,-0.09 0.87,-0.25 v 0 0 q 0.38,-0.15 0.68,-0.34 v 0 0 Q 18.55,8.39 18.75,8.2 v 0 -1.73 h -2.88 v -1.1 h 4.08 v 3.33 0 Q 19.63,9.02 19.2,9.32 v 0 0 q -0.44,0.3 -0.98,0.52 v 0 0 q -0.54,0.23 -1.18,0.36 v 0 0 q -0.64,0.13 -1.37,0.13 v 0 0 q -1.22,0 -2.13,-0.37 v 0 0 Q 12.63,9.58 12.03,8.92 v 0 0 Q 11.42,8.25 11.12,7.33 v 0 0 q -0.31,-0.91 -0.31,-2 z m 16.68,4.86 H 26.18 V 0.56 h 1.31 z m 10.26,0 h -1.57 l -5.16,-8.2 v 0 q 0.02,0.33 0.04,0.66 v 0 0 q 0.01,0.28 0.02,0.59 v 0 0 q 0.01,0.31 0.01,0.55 v 0 6.4 H 29.93 V 0.56 h 1.52 l 5.2,8.26 v 0 Q 36.63,8.48 36.61,8.15 v 0 0 Q 36.6,7.86 36.59,7.52 v 0 0 Q 36.57,7.18 36.57,6.88 v 0 -6.32 h 1.18 z m 1.84,-4.86 v 0 0 q 0,-1.13 0.31,-2.04 v 0 0 q 0.3,-0.9 0.91,-1.54 v 0 0 q 0.6,-0.64 1.5,-0.99 v 0 0 Q 43.2,0.42 44.39,0.42 v 0 0 q 0.88,0 1.55,0.15 v 0 0 q 0.67,0.16 1.17,0.46 v 0 0 q 0.49,0.29 0.83,0.71 v 0 0 q 0.34,0.42 0.58,0.95 v 0 l -1.24,0.37 v 0 Q 47.1,2.7 46.85,2.41 v 0 0 Q 46.6,2.12 46.25,1.91 v 0 0 Q 45.89,1.71 45.42,1.6 v 0 0 Q 44.95,1.48 44.35,1.48 v 0 0 q -0.87,0 -1.52,0.28 v 0 0 q -0.65,0.27 -1.07,0.78 v 0 0 q -0.42,0.5 -0.63,1.21 v 0 0 q -0.21,0.71 -0.21,1.58 v 0 0 q 0,0.87 0.23,1.59 v 0 0 q 0.22,0.72 0.67,1.25 v 0 0 q 0.44,0.52 1.1,0.81 v 0 0 q 0.66,0.29 1.53,0.29 v 0 0 q 0.56,0 1.04,-0.1 v 0 0 q 0.48,-0.09 0.87,-0.25 v 0 0 q 0.38,-0.15 0.68,-0.34 v 0 0 Q 47.33,8.39 47.53,8.2 v 0 -1.73 h -2.88 v -1.1 h 4.08 v 3.33 0 q -0.32,0.32 -0.75,0.62 v 0 0 Q 47.54,9.62 47,9.84 v 0 0 q -0.54,0.23 -1.18,0.36 v 0 0 q -0.64,0.13 -1.37,0.13 v 0 0 q -1.22,0 -2.13,-0.37 v 0 0 Q 41.41,9.58 40.81,8.92 v 0 0 Q 40.2,8.25 39.9,7.33 v 0 0 q -0.31,-0.91 -0.31,-2 z m 18.93,4.86 H 50.93 V 0.56 h 7.31 v 1.07 h -6.01 v 3.09 h 5.6 v 1.05 h -5.6 v 3.36 h 6.29 z m 9.57,0 h -1.58 l -5.15,-8.2 v 0 q 0.01,0.33 0.03,0.66 v 0 0 q 0.02,0.28 0.03,0.59 v 0 0 q 0.01,0.31 0.01,0.55 v 0 6.4 H 60.27 V 0.56 h 1.51 l 5.21,8.26 v 0 Q 66.97,8.48 66.95,8.15 v 0 0 Q 66.94,7.86 66.92,7.52 v 0 0 Q 66.91,7.18 66.91,6.88 v 0 -6.32 h 1.18 z m 3.74,0 H 70.52 V 0.56 h 1.31 z m 10.02,0 H 74.27 V 0.56 h 7.3 v 1.07 h -6 v 3.09 h 5.59 v 1.05 h -5.59 v 3.36 h 6.28 z m 10.07,0 h -1.51 l -2.5,-4 h -3 v 4 H 83.6 V 0.56 h 4.54 v 0 q 0.82,0 1.45,0.19 v 0 0 q 0.63,0.19 1.06,0.54 v 0 0 q 0.43,0.36 0.66,0.87 v 0 0 q 0.22,0.51 0.22,1.16 v 0 0 q 0,0.45 -0.13,0.9 v 0 0 q -0.13,0.44 -0.42,0.81 v 0 0 Q 90.69,5.4 90.25,5.67 v 0 0 Q 89.8,5.93 89.18,6.04 v 0 z m -1.7,-6.86 v 0 0 q 0,-0.44 -0.15,-0.76 v 0 0 Q 89.92,2.25 89.63,2.03 v 0 0 Q 89.35,1.82 88.94,1.71 v 0 0 q -0.41,-0.1 -0.93,-0.1 v 0 h -3.1 v 3.55 h 3.15 v 0 q 0.56,0 0.97,-0.14 v 0 0 Q 89.44,4.88 89.7,4.63 v 0 0 q 0.27,-0.24 0.39,-0.58 v 0 0 q 0.13,-0.33 0.13,-0.72 z m 12.57,2 v 0 0 q 0,1.13 -0.33,2.05 v 0 0 q -0.32,0.93 -0.94,1.58 v 0 0 q -0.61,0.66 -1.5,1.01 v 0 0 Q 99.13,10.33 98,10.33 v 0 0 q -1.19,0 -2.08,-0.37 v 0 0 q -0.9,-0.38 -1.5,-1.04 v 0 0 Q 93.83,8.25 93.53,7.33 v 0 0 q -0.3,-0.91 -0.3,-2 v 0 0 q 0,-1.13 0.31,-2.04 v 0 0 q 0.32,-0.9 0.93,-1.54 v 0 0 q 0.6,-0.64 1.5,-0.99 v 0 0 q 0.89,-0.34 2.04,-0.34 v 0 0 q 1.15,0 2.04,0.35 v 0 0 q 0.9,0.34 1.5,0.99 v 0 0 q 0.61,0.64 0.92,1.55 v 0 0 q 0.32,0.91 0.32,2.02 z m -1.34,0 v 0 0 q 0,-0.87 -0.22,-1.58 v 0 0 q -0.22,-0.71 -0.66,-1.21 v 0 0 Q 100.14,2.03 99.5,1.76 v 0 0 Q 98.85,1.48 98.01,1.48 v 0 0 q -0.86,0 -1.51,0.28 v 0 0 q -0.65,0.27 -1.08,0.78 v 0 0 q -0.43,0.5 -0.65,1.21 v 0 0 q -0.22,0.71 -0.22,1.58 v 0 0 q 0,0.87 0.23,1.59 v 0 0 Q 95,7.64 95.43,8.17 v 0 0 q 0.44,0.52 1.08,0.81 v 0 0 Q 97.16,9.27 98,9.27 v 0 0 q 0.9,0 1.56,-0.29 v 0 0 q 0.65,-0.3 1.07,-0.82 v 0 0 q 0.42,-0.52 0.62,-1.25 v 0 0 q 0.2,-0.72 0.2,-1.58 z m 10.7,2.2 v 0 0 q 0,0.61 -0.24,1.12 v 0 0 q -0.23,0.52 -0.72,0.89 v 0 0 q -0.5,0.37 -1.24,0.58 v 0 0 q -0.75,0.21 -1.78,0.21 v 0 0 q -1.8,0 -2.8,-0.63 v 0 0 q -1.01,-0.63 -1.28,-1.82 v 0 l 1.27,-0.25 v 0 q 0.09,0.37 0.29,0.68 v 0 0 q 0.2,0.31 0.54,0.53 v 0 0 q 0.33,0.22 0.83,0.35 v 0 0 q 0.5,0.12 1.2,0.12 v 0 0 q 0.58,0 1.07,-0.1 v 0 0 q 0.48,-0.1 0.83,-0.3 v 0 0 q 0.35,-0.21 0.54,-0.53 v 0 0 q 0.2,-0.33 0.2,-0.78 v 0 0 q 0,-0.47 -0.22,-0.76 v 0 0 q -0.21,-0.3 -0.6,-0.49 v 0 0 q -0.39,-0.19 -0.93,-0.32 v 0 0 q -0.54,-0.13 -1.2,-0.28 v 0 0 q -0.4,-0.09 -0.81,-0.2 v 0 0 q -0.4,-0.1 -0.78,-0.25 v 0 0 q -0.37,-0.15 -0.7,-0.34 v 0 0 q -0.33,-0.2 -0.57,-0.48 v 0 0 Q 104.82,4.2 104.68,3.84 v 0 0 q -0.14,-0.37 -0.14,-0.85 v 0 0 q 0,-0.68 0.28,-1.17 v 0 0 q 0.28,-0.49 0.77,-0.8 v 0 0 q 0.49,-0.32 1.16,-0.46 v 0 0 q 0.67,-0.14 1.45,-0.14 v 0 0 q 0.89,0 1.53,0.14 v 0 0 q 0.64,0.14 1.07,0.42 v 0 0 q 0.44,0.28 0.7,0.69 v 0 0 q 0.27,0.41 0.42,0.96 v 0 l -1.28,0.23 v 0 q -0.1,-0.35 -0.28,-0.62 v 0 0 q -0.18,-0.28 -0.47,-0.46 v 0 0 q -0.3,-0.19 -0.72,-0.28 v 0 0 q -0.42,-0.1 -0.98,-0.1 v 0 0 q -0.67,0 -1.13,0.12 v 0 0 q -0.45,0.12 -0.73,0.33 v 0 0 q -0.28,0.2 -0.4,0.48 v 0 0 q -0.12,0.27 -0.12,0.6 v 0 0 q 0,0.43 0.22,0.7 v 0 0 q 0.21,0.28 0.58,0.46 v 0 0 q 0.37,0.19 0.86,0.31 v 0 0 q 0.48,0.13 1.03,0.25 v 0 0 q 0.44,0.1 0.89,0.21 v 0 0 q 0.44,0.1 0.84,0.25 v 0 0 q 0.4,0.15 0.75,0.35 v 0 0 q 0.36,0.19 0.62,0.48 v 0 0 q 0.26,0.29 0.4,0.68 v 0 0 q 0.15,0.39 0.15,0.91 z" />
    </g>
    <g
       transform="matrix(1.0943033,0,0,1.1073759,7.6977846,2.6049898)"
       fill="#0ea7ff"
       stroke="none"
       id="e85cfb98-4136-4ae7-a8d8-008916c51235"
       data-v-fde0c5aa="">
      <style
         id="style13" />
      <path
         id="path15"
         d="M 53.9,10 C 43.3,-0.6 26.3,-1 15.3,9.2 L 14.5,10 c -0.3,0.3 -0.5,0.6 -0.8,0.8 l -0.4,0.5 39.4,39.5 c 0,0 1.7,-2 2,-2.3 C 64.8,37.6 64.5,20.6 53.9,10 Z m -1.7,22 c 1.8,3.1 3,6.2 3.6,8.9 -0.9,1.7 -1.9,3.2 -3.2,4.7 L 44.7,37.7 C 47,35.5 49.6,33.6 52.2,32 Z m 1.2,-4.7 c -1.8,-2.7 -3.9,-5.4 -6.3,-7.9 l 5.5,-5.5 c 2.8,3.3 4.7,7.2 5.5,11.5 -1.5,0.4 -3.1,1.1 -4.7,1.9 z m -3.3,-16 -5.5,5.5 c -2.6,-2.5 -5.4,-4.7 -8.2,-6.5 0.8,-1.6 1.4,-3.1 1.9,-4.5 4.4,0.7 8.4,2.6 11.8,5.5 z m -8,8 -7.9,7.9 -5.7,-5.7 c 2.4,-2.5 4.5,-5.2 6.2,-8.1 2.5,1.7 5,3.7 7.4,5.9 z M 28.4,6.1 c 2.1,-0.5 4.2,-0.7 6.3,-0.7 -0.4,1 -0.8,2 -1.3,3.1 -1.8,-1 -3.4,-1.8 -5,-2.4 z m 16.2,15.7 c 2.2,2.3 4.1,4.7 5.7,7.2 -2.9,1.7 -5.6,3.8 -8.1,6.2 l -5.5,-5.5 z m 13.2,13.7 c -0.7,-1.7 -1.5,-3.5 -2.5,-5.2 1.1,-0.5 2.1,-1 3.2,-1.4 0.1,2.3 -0.2,4.5 -0.7,6.6 z M 31.6,11.6 C 30,14.2 28.1,16.7 26,19 l -7.6,-7.6 c 1.4,-1.2 3,-2.3 4.6,-3.2 2.6,0.5 5.6,1.7 8.6,3.4 z M 21.4,25.9 10.1,14.6 C 9.5,15.2 8.9,15.8 8.2,16.4 7.6,17 7.5,17.6 7.8,18.5 10.1,23.6 9.4,28.6 5.5,33.9 5.3,34.1 5.1,34.4 4.9,34.6 4.3,35.2 3.6,35.6 3,36.1 l -0.2,0.1 c -0.2,0.1 -0.3,0.2 -0.5,0.4 -0.5,0.5 -0.6,1 -0.4,1.7 0.3,1.2 0.6,2.3 0.9,3.4 l 0.1,0.2 c 0.2,0.8 0.4,1.5 0.6,2.3 0.2,0.8 0.7,1.3 1.6,1.3 3.2,0.2 5.9,1.6 8.7,4.3 2.7,2.6 4.1,5.7 4.2,9.2 0,0.7 0.4,1.2 1.2,1.4 2.3,0.7 4.2,1.2 6.1,1.7 0.2,0.1 0.5,0.1 0.9,0.1 0.2,-0.1 0.5,-0.2 0.6,-0.3 0.1,-0.1 0.2,-0.3 0.4,-0.5 0.4,-0.7 0.9,-1.4 1.6,-2 1.9,-1.8 4.8,-3.2 8,-3.7 3.2,-0.5 6.2,-0.1 8.3,1.2 0.3,0.2 0.8,0.4 1.3,0.3 0.4,-0.1 0.7,-0.3 1.1,-0.6 l 2,-2 c 0.1,-0.1 0.2,-0.2 0.4,-0.3 L 38.3,42.8 38.2,43 c -1.7,1.6 -3.7,2.7 -6,3.1 -3.9,0.8 -7.8,-0.4 -10.6,-3.1 -2.4,-2.3 -3.7,-5.4 -3.7,-8.7 0,-3.1 1.2,-6.1 3.5,-8.4 z" />
    </g>
    <g
       data-v-fde0c5aa=""
       id="9b09e8a7-68ae-4c00-b8c6-396c3eb606f2"
       fill="#ffffff"
       transform="matrix(0.37804702,0,0,0.36222669,86.047132,46.503298)">
      <path
         d="m 1.75,4.65 c 0,-0.62 0.36,-1.57 2.46,-1.57 1.7,0 2.48,0.74 2.59,1.67 H 7.88 C 7.8,3.36 6.68,2.1 4.21,2.1 1.89,2.1 0.73,3.15 0.73,4.66 c 0,3.18 6.34,2.03 6.34,4.3 0,1.09 -0.98,1.64 -2.55,1.64 -1.61,0 -2.91,-0.55 -2.98,-1.89 H 0.45 c 0.14,1.66 1.26,2.88 4,2.88 2.28,0 3.67,-0.95 3.67,-2.67 C 8.12,5.68 1.75,6.8 1.75,4.65 Z M 20.86,2.1 c -2.81,0 -4.7,2.11 -4.7,4.75 0,2.63 1.89,4.74 4.7,4.74 2.81,0 4.7,-2.11 4.7,-4.74 0,-2.64 -1.89,-4.75 -4.7,-4.75 z m 0,8.47 c -2.25,0 -3.65,-1.64 -3.65,-3.72 0,-2.09 1.4,-3.73 3.65,-3.73 2.25,0 3.65,1.64 3.65,3.73 0,2.08 -1.4,3.72 -3.65,3.72 z M 34.24,2.21 v 9.27 h 6.11 V 10.47 H 35.29 V 2.21 Z m 20.71,0 v 5.31 c 0,2.15 -1.43,3.05 -2.9,3.05 -1.47,0 -2.88,-0.9 -2.88,-3.05 V 2.21 h -1.05 v 5.28 c 0,2.46 1.62,4.1 3.93,4.1 2.33,0 3.95,-1.65 3.95,-4.1 V 2.21 Z m 14.18,8.36 c -2.25,0 -3.51,-1.64 -3.51,-3.72 0,-2.09 1.26,-3.73 3.51,-3.73 1.53,0 2.54,0.73 3.01,1.86 h 1.11 C 72.66,3.29 71.15,2.1 69.05,2.1 c -2.79,0 -4.48,2.11 -4.48,4.75 0,2.63 1.69,4.74 4.48,4.74 2.1,0 3.61,-1.19 4.2,-2.88 h -1.11 c -0.47,1.13 -1.48,1.86 -3.01,1.86 z M 82.87,2.21 h -1.05 v 9.27 h 1.05 z M 96.25,2.1 c -2.81,0 -4.7,2.11 -4.7,4.75 0,2.63 1.89,4.74 4.7,4.74 2.81,0 4.7,-2.11 4.7,-4.74 0,-2.64 -1.89,-4.75 -4.7,-4.75 z m 0,8.47 C 94,10.57 92.6,8.93 92.6,6.85 c 0,-2.09 1.4,-3.73 3.65,-3.73 2.25,0 3.65,1.64 3.65,3.73 0,2.08 -1.4,3.72 -3.65,3.72 z m 20.33,-8.36 v 7.8 l -5.73,-7.8 h -1.22 v 9.27 h 1.05 V 3.65 l 5.73,7.83 h 1.22 V 2.21 Z m 17.13,1.01 V 2.21 h -6.81 v 9.27 h 6.81 v -1.01 h -5.76 V 7.35 h 5.15 V 6.33 h -5.15 V 3.22 Z m 9.2,1.43 c 0,-0.62 0.37,-1.57 2.47,-1.57 1.69,0 2.47,0.74 2.59,1.67 h 1.07 c -0.08,-1.39 -1.2,-2.65 -3.66,-2.65 -2.33,0 -3.49,1.05 -3.49,2.56 0,3.18 6.34,2.03 6.34,4.3 0,1.09 -0.98,1.64 -2.55,1.64 -1.61,0 -2.91,-0.55 -2.98,-1.89 h -1.09 c 0.14,1.66 1.26,2.88 4,2.88 2.29,0 3.67,-0.95 3.67,-2.67 0,-3.24 -6.37,-2.12 -6.37,-4.27 z m 26.03,3.53 h 3.12 c 1.97,0 3.19,-1.15 3.19,-2.99 0,-1.82 -1.22,-2.98 -3.19,-2.98 h -4.17 v 9.27 h 1.05 z m 3.05,-4.97 c 1.46,0 2.21,0.75 2.21,1.98 0,1.25 -0.75,2.01 -2.21,2.01 h -3.05 V 3.21 Z m 12.74,4.71 h 3.22 l 2.24,3.56 h 1.25 L 189,7.74 c 1.04,-0.24 2.24,-0.84 2.24,-2.63 0,-1.76 -1.22,-2.9 -3.12,-2.9 h -4.44 v 9.27 h 1.05 z m 0,-4.71 h 3.26 c 1.32,0 2.2,0.72 2.2,1.9 0,1.44 -1.26,1.82 -2.25,1.82 h -3.21 z M 204.16,2.1 c -2.81,0 -4.7,2.11 -4.7,4.75 0,2.63 1.89,4.74 4.7,4.74 2.82,0 4.71,-2.11 4.71,-4.74 0,-2.64 -1.89,-4.75 -4.71,-4.75 z m 0,8.47 c -2.25,0 -3.65,-1.64 -3.65,-3.72 0,-2.09 1.4,-3.73 3.65,-3.73 2.26,0 3.66,1.64 3.66,3.73 0,2.08 -1.4,3.72 -3.66,3.72 z M 224.24,3.22 V 2.21 h -6.69 v 9.27 h 1.05 V 7.46 h 5.02 V 6.44 H 218.6 V 3.22 Z m 15.29,0 V 2.21 h -6.82 v 9.27 h 6.82 v -1.01 h -5.77 V 7.35 h 5.15 V 6.33 h -5.15 V 3.22 Z m 9.19,1.43 c 0,-0.62 0.37,-1.57 2.47,-1.57 1.69,0 2.48,0.74 2.59,1.67 h 1.08 c -0.09,-1.39 -1.21,-2.65 -3.67,-2.65 -2.33,0 -3.49,1.05 -3.49,2.56 0,3.18 6.34,2.03 6.34,4.3 0,1.09 -0.98,1.64 -2.54,1.64 -1.61,0 -2.92,-0.55 -2.99,-1.89 h -1.09 c 0.14,1.66 1.26,2.88 4.01,2.88 2.28,0 3.66,-0.95 3.66,-2.67 0,-3.24 -6.37,-2.12 -6.37,-4.27 z m 16.05,-2.44 h -1.05 v 9.27 h 1.05 z M 278.15,2.1 c -2.81,0 -4.7,2.11 -4.7,4.75 0,2.63 1.89,4.74 4.7,4.74 2.82,0 4.71,-2.11 4.71,-4.74 0,-2.64 -1.89,-4.75 -4.71,-4.75 z m 0,8.47 c -2.25,0 -3.65,-1.64 -3.65,-3.72 0,-2.09 1.4,-3.73 3.65,-3.73 2.26,0 3.66,1.64 3.66,3.73 0,2.08 -1.4,3.72 -3.66,3.72 z m 20.33,-8.36 v 7.8 l -5.73,-7.8 h -1.21 v 9.27 h 1.05 V 3.65 l 5.72,7.83 h 1.22 V 2.21 Z m 14.48,0 h -1.32 l -3.93,9.27 h 1.16 L 310,8.79 h 4.59 l 1.14,2.69 h 1.16 z m -2.55,5.62 1.89,-4.53 1.89,4.53 z m 14.66,-5.62 v 9.27 h 6.1 v -1.01 h -5.05 V 2.21 Z m 21.28,1.01 V 2.21 h -6.82 v 9.27 h 6.82 v -1.01 h -5.77 V 7.35 h 5.15 V 6.33 h -5.15 V 3.22 Z m 9.19,1.43 c 0,-0.62 0.37,-1.57 2.47,-1.57 1.69,0 2.48,0.74 2.59,1.67 h 1.08 c -0.09,-1.39 -1.21,-2.65 -3.67,-2.65 -2.33,0 -3.49,1.05 -3.49,2.56 0,3.18 6.34,2.03 6.34,4.3 0,1.09 -0.98,1.64 -2.54,1.64 -1.61,0 -2.92,-0.55 -2.99,-1.89 h -1.09 c 0.14,1.66 1.26,2.88 4.01,2.88 2.28,0 3.66,-0.95 3.66,-2.67 0,-3.24 -6.37,-2.12 -6.37,-4.27 z"
         id="path20" />
    </g>
  </g>
</svg>
